# xmcd
#
# Track frame offsets:
#	187
#	10917
#	26700
#	39732
#	50677
#	61460
#	70725
#	81040
#	96482
#	108032
#	120445
#	135155
#	146132
#	157350
#	170415
#	191490
#	199437
#
# Disc length: 2800
#
# Revision: 2
# Processed by: cddbd v1.5.1PL0 Copyright (c) Steve Scherf et al.
# Submitted via: dBpowerAMP V4.0
# Normalized: r0:TDELIM( - );r1:TRMNUM
#
DISCID=f30aee11
DTITLE=Essential Country V 1  D 2 - Essential Country Vol 1 Disk 2
DYEAR=1997
DGENRE=Country
TTITLE0=Peace In The Valley - Jim Reeves
TTITLE1=For The Good Times - Kenny Rogers
TTITLE2=George Jones - Don't Be Angry
TTITLE3=Don Gibson - Funny, Familiar, Forgotten Feelings
TTITLE4=Dave Dudley - Seven Lonely Days
TTITLE5=Jim Reeves - According To My Heart
TTITLE6=Freddy Fender - Before The Next Teardrop Falls
TTITLE7=Willie Nelson - Face Of a Fighter
TTITLE8=Ray Drusky - I Can't Help It
TTITLE9=Buddy Owens - How Cab I Tell My Dreams Not To Sleep With You
TTITLE10=Jerry Lee Lewis - Careless Hands
TTITLE11=Faron Young - A Satisfied Man
TTITLE12=Kenny Rogers - She Even Woke Me Up To Say Goodbye
TTITLE13=Don Williams - There's Never Been A Time
TTITLE14=Red Sovine - Daddy
TTITLE15=Jim Reeves - Blue Boy
TTITLE16=Hank Locklin - Crazy Over You
EXTD=
EXTT0=
EXTT1=
EXTT2=
EXTT3=
EXTT4=
EXTT5=
EXTT6=
EXTT7=
EXTT8=
EXTT9=
EXTT10=
EXTT11=
EXTT12=
EXTT13=
EXTT14=
EXTT15=
EXTT16=
PLAYORDER=
